<svg width="532" height="452" viewBox="0 0 532 452" fill="none" xmlns="http://www.w3.org/2000/svg">
<path d="M497.698 106.302C472.03 65.1935 433.827 33.4254 388.727 15.6853C343.627 -2.05479 294.018 -4.82717 247.222 7.77729C200.426 20.3818 158.921 47.6954 128.832 85.6875C98.7434 123.68 81.6644 170.338 80.1155 218.777C78.5666 267.216 92.6298 314.87 120.23 354.707C147.83 394.544 187.505 424.453 233.4 440.022C279.296 455.59 328.98 455.993 375.121 441.17C421.263 426.348 461.418 397.085 489.66 357.701L428.865 314.105C409.971 340.452 383.109 360.028 352.241 369.944C321.373 379.86 288.135 379.591 257.432 369.176C226.729 358.761 200.188 338.752 181.724 312.102C163.26 285.452 153.852 253.573 154.888 221.168C155.924 188.763 167.35 157.55 187.478 132.134C207.607 106.718 235.373 88.4456 266.679 80.0135C297.984 71.5814 331.171 73.4361 361.343 85.3038C391.514 97.1716 417.071 118.424 434.242 145.924L497.698 106.302Z" fill="#D9D9D9"/>
<path d="M497.698 106.302C472.03 65.1935 433.827 33.4254 388.727 15.6853C343.627 -2.05479 294.018 -4.82717 247.222 7.77729C200.426 20.3818 158.921 47.6954 128.832 85.6875C98.7434 123.68 81.6644 170.338 80.1155 218.777C78.5666 267.216 92.6298 314.87 120.23 354.707C147.83 394.544 187.505 424.453 233.4 440.022C279.296 455.59 328.98 455.993 375.121 441.17C421.263 426.348 461.418 397.085 489.66 357.701L428.865 314.105C409.971 340.452 383.109 360.028 352.241 369.944C321.373 379.86 288.135 379.591 257.432 369.176C226.729 358.761 200.188 338.752 181.724 312.102C163.26 285.452 153.852 253.573 154.888 221.168C155.924 188.763 167.35 157.55 187.478 132.134C207.607 106.718 235.373 88.4456 266.679 80.0135C297.984 71.5814 331.171 73.4361 361.343 85.3038C391.514 97.1716 417.071 118.424 434.242 145.924L497.698 106.302Z" fill="#4B5DFF"/>
<path d="M431.925 310.07C452.543 258.161 453.355 200.383 434.202 147.906L267.893 209.693C271.892 220.651 271.722 232.716 267.417 243.555L431.925 310.07Z" fill="#00FFA3"/>
<path d="M499.353 343.006C519.761 309.283 530.993 270.809 531.935 231.404C532.878 191.998 523.498 153.031 504.726 118.371L471.947 136.124C487.622 165.067 495.455 197.607 494.668 230.512C493.881 263.418 484.502 295.546 467.461 323.706L499.353 343.006Z" fill="#00FFA3"/>
<circle cx="305.5" cy="226.5" r="78.5" fill="#4A4A4A"/>
<path d="M236.689 140.939L281.915 171.071L233.956 195.215L236.689 140.939Z" fill="#4A4A4A"/>
<path d="M372.018 140.939L326.792 171.071L374.751 195.215L372.018 140.939Z" fill="#4A4A4A"/>
</svg>
